# xmcd CD database file
#
# Track frame offsets:
#	150
#	16482
#	29585
#	44752
#	59257
#	79790
#	96705
#
# Disc length: 1542 seconds
#
# Revision: 0
# Processed by: cddbd v1.5PL3 Copyright (c) Steve Scherf et al.
# Submitted via: CDex 1.51
#
DISCID=60060407
DTITLE=藤圭子 - 極上演歌第3集
DYEAR=1999
DGENRE=Blues
TTITLE0=聞いて下さい私の人生
TTITLE1=赤坂の夜は更けて
TTITLE2=雨がやんだら
TTITLE3=遠くへ行きたい
TTITLE4=命火
TTITLE5=恋仁義
TTITLE6=別れの旅
EXTD=YEAR: 1999
EXTT0=
EXTT1=
EXTT2=
EXTT3=
EXTT4=
EXTT5=
EXTT6=
PLAYORDER=
